<svg width="368" height="157" viewBox="0 0 368 157" fill="none" xmlns="http://www.w3.org/2000/svg">
    <path fill-rule="evenodd" clip-rule="evenodd" d="M0 79.3301C0 75.7591 2.22231 73.378 5.3348 73.378C8.07726 73.378 9.855 74.8663 10.2245 77.3954C12.819 74.5685 16.227 72.9316 20.1546 72.9316C24.5997 72.9316 28.3788 74.7925 31.1953 78.3625C34.1597 74.9406 38.8269 72.9316 42.4585 72.9316C51.1268 72.9316 57.0552 77.9915 57.0552 87.3659V107.9C57.0552 111.471 54.8329 113.852 51.7199 113.852C48.6079 113.852 46.3845 111.471 46.3845 107.9V89.2252C46.3845 84.9101 44.0132 81.8603 40.1611 81.8603C36.233 81.8603 33.8627 84.9101 33.8627 89.2252V107.9C33.8627 111.471 31.6398 113.852 28.5273 113.852C25.4148 113.852 23.1925 111.471 23.1925 107.9V89.2252C23.1925 84.9101 20.8212 81.8603 16.9686 81.8603C12.5959 81.8603 10.6701 84.9101 10.6701 89.2252V107.9C10.6701 111.471 8.44677 113.852 5.3348 113.852C2.22231 113.852 0 111.471 0 107.9V79.3301Z" fill="white"/>
    <path fill-rule="evenodd" clip-rule="evenodd" d="M72.1257 93.6906C72.1257 98.8226 74.7936 104.477 80.573 104.477C86.3518 104.477 89.0203 98.8226 89.0203 93.6906C89.0203 88.557 86.4269 82.753 80.573 82.753C74.7186 82.753 72.1257 88.557 72.1257 93.6906ZM99.691 93.6906C99.691 104.85 92.0583 114.298 80.573 114.298C69.0878 114.298 61.4551 104.85 61.4551 93.6906C61.4551 82.8273 69.3103 72.9316 80.573 72.9316C91.8357 72.9316 99.691 82.8273 99.691 93.6906Z" fill="white"/>
    <path fill-rule="evenodd" clip-rule="evenodd" d="M104.168 79.3301C104.168 75.7591 106.391 73.378 109.503 73.378C112.245 73.378 114.023 74.8663 114.393 77.3211C116.469 74.4204 119.655 72.9316 124.693 72.9316C133.067 72.9316 139.29 78.2892 139.29 87.3659V107.9C139.29 111.471 137.068 113.852 133.956 113.852C130.843 113.852 128.621 111.471 128.621 107.9V89.2252C128.621 84.2413 125.507 81.8603 121.656 81.8603C117.283 81.8603 114.838 85.0592 114.838 89.2252V107.9C114.838 111.471 112.615 113.852 109.503 113.852C106.391 113.852 104.168 111.471 104.168 107.9V79.3301Z" fill="white"/>
    <path fill-rule="evenodd" clip-rule="evenodd" d="M170.916 90.0446C170.323 85.3573 167.359 81.8611 162.395 81.8611C157.652 81.8611 154.465 85.507 153.947 90.0446H170.916ZM154.169 97.1871C154.911 102.47 159.283 104.925 164.247 104.925C169.73 104.925 173.509 100.61 176.325 100.61C178.622 100.61 180.697 102.916 180.697 105.222C180.697 109.835 171.212 114.3 163.284 114.3C151.28 114.3 143.277 105.52 143.277 93.691C143.277 82.8282 151.131 72.9336 162.395 72.9336C173.954 72.9336 181.586 83.498 181.586 92.4256C181.586 95.6251 180.178 97.1871 176.918 97.1871H154.169Z" fill="white"/>
    <path fill-rule="evenodd" clip-rule="evenodd" d="M182.03 80.7444C181.733 79.927 181.512 79.1086 181.512 77.9924C181.512 75.3136 184.327 73.3789 186.549 73.3789C189.144 73.3789 190.996 74.7934 191.885 77.1739L199.221 97.3357L207.076 77.1739C207.964 74.7934 209.818 73.3789 212.411 73.3789C214.633 73.3789 217.448 75.3136 217.448 77.9924C217.448 79.1086 217.301 79.927 216.931 80.7444L199.072 125.386C198.184 127.617 196.552 129.626 194.035 129.626C190.403 129.626 188.476 127.319 188.476 125.013C188.476 123.972 188.773 122.857 189.144 121.888L193.811 110.282L182.03 80.7444Z" fill="white"/>
    <path fill-rule="evenodd" clip-rule="evenodd" d="M230.179 93.9352C230.179 88.489 234.592 84.0579 240.017 84.0579C245.442 84.0579 249.855 88.489 249.855 93.9352C249.855 99.3834 245.442 103.813 240.017 103.813C234.592 103.813 230.179 99.3834 230.179 93.9352ZM255.485 107.369C258.596 103.763 260.484 99.0683 260.484 93.9352C260.484 90.0374 259.396 86.3894 257.511 83.2811L261.778 78.9965C263.852 76.9138 263.852 73.5341 261.777 71.4513C259.701 69.3686 256.337 69.367 254.261 71.4513L249.826 75.9056C246.911 74.3009 243.569 73.386 240.017 73.386C228.731 73.386 219.551 82.6044 219.551 93.9352C219.551 105.267 228.731 114.485 240.017 114.485C249.945 114.485 258.335 120.074 258.335 126.688C258.335 133.302 249.945 138.891 240.017 138.891C230.087 138.891 221.699 133.302 221.699 126.688C221.699 123.741 219.32 121.352 216.385 121.352C213.451 121.352 211.07 123.741 211.07 126.688C211.07 139.302 224.056 149.563 240.017 149.563C255.978 149.563 268.964 139.302 268.964 126.688C268.964 118.569 263.578 111.428 255.485 107.369Z" fill="white"/>
    <path fill-rule="evenodd" clip-rule="evenodd" d="M266.105 79.3349C266.105 75.7638 268.328 73.3828 271.44 73.3828C274.553 73.3828 276.776 75.7638 276.776 79.3349V98.4559C276.776 102.921 280.111 105.376 283.667 105.376C287.223 105.376 290.558 102.921 290.558 98.4559V79.3349C290.558 75.7638 292.781 73.3828 295.893 73.3828C299.006 73.3828 301.227 75.7638 301.227 79.3349V98.6793C301.227 108.202 294.929 114.303 283.667 114.303C272.404 114.303 266.105 108.202 266.105 98.6793V79.3349Z" fill="white"/>
    <path fill-rule="evenodd" clip-rule="evenodd" d="M305.879 78.7393C305.879 75.1689 308.694 73.3828 311.362 73.3828C314.178 73.3828 316.549 74.4247 316.549 77.8471H316.696C318.697 74.8711 320.847 73.3828 324.181 73.3828C326.775 73.3828 329.368 75.2432 329.368 79.1125C329.368 82.6097 326.182 82.8321 322.994 84.3204C319.808 85.8076 316.549 87.2216 316.549 91.463V107.905C316.549 111.476 314.325 113.857 311.213 113.857C308.1 113.857 305.879 111.476 305.879 107.905V78.7393Z" fill="white"/>
    <path fill-rule="evenodd" clip-rule="evenodd" d="M332.877 79.3349C332.877 75.7638 335.099 73.3828 338.211 73.3828C341.324 73.3828 343.547 75.7638 343.547 79.3349V98.4559C343.547 102.921 346.882 105.376 350.439 105.376C353.995 105.376 357.33 102.921 357.33 98.4559V79.3349C357.33 75.7638 359.552 73.3828 362.665 73.3828C365.776 73.3828 367.999 75.7638 367.999 79.3349V98.6793C367.999 108.202 361.701 114.303 350.439 114.303C339.175 114.303 332.877 108.202 332.877 98.6793V79.3349Z" fill="white"/>
</svg>