<?xml version="1.0" encoding="utf-8"?>
<!-- Generator: Adobe Illustrator 23.1.0, SVG Export Plug-In . SVG Version: 6.00 Build 0)  -->
<svg version="1.1" id="Layer_1" xmlns="http://www.w3.org/2000/svg" xmlns:xlink="http://www.w3.org/1999/xlink" x="0px" y="0px"
	 viewBox="0 0 1181 256" style="enable-background:new 0 0 1181 256;" xml:space="preserve">
<style type="text/css">
	.st0{fill:#983B8E;}
	.st1{fill:#093B59;}
</style>
<g>
	<path class="st0" d="M744.5,254.4c-20.3-2.8-38.7-12.5-53.2-27.7c-11.4-12.1-17.5-24.5-18.9-38.7c-0.5-5.5-0.3-8,1-11.5
		c3.1-7.9,12.2-13.6,19.8-12.1c8.8,1.6,14.3,8.4,15.7,19.2c1.4,11.6,6.3,18.7,17.8,26.1c11.7,7.5,31,12.1,45.3,10.8
		c17.4-1.6,33.3-7.9,42.3-16.8c7.2-7.2,9.7-12.7,9.7-21.3c-0.1-8.8-2.3-13.9-9.3-20.7c-10.3-10.1-23.9-15.3-44.2-16.8
		c-21.7-1.7-31-4.6-43.6-14c-19.4-14.4-30-38.4-26.9-61.1c6.1-44.5,50.8-71.2,91.5-54.7l7,2.9l8-8c8.7-8.6,11.3-10,18.1-10
		c12.3,0,20.5,10.4,17.4,22c-0.8,3.1-3.2,6.4-9.1,12.5l-8.1,8.4l3.6,8.9c5.6,14,6.7,27.1,3.4,41.2c-1.3,5.8-8,20-11.3,23.8l-2.5,3
		l6.7,4.3c26.6,16.6,40.1,43.1,35.3,69.1c-4.6,24.9-26.8,47.7-56,57.8C790.3,255.7,763.9,257.2,744.5,254.4z M775.6,106.3
		c14.4-4.8,22.1-16.1,21.2-31.1c-0.5-8.5-3.6-15-10-20.7c-15.2-13.6-39.8-8.3-48.1,10.4c-5.8,13.1-1,30.5,10.4,37.7
		C757.3,107.7,767.2,109.2,775.6,106.3z"/>
	<path class="st0" d="M886.1,142.9c-10-2.6-18.7-7.7-25.3-14.8c-6.3-6.8-9.4-12.8-11.4-22c-1.7-8.1-2-76.4-0.4-82.3
		c2.1-7.3,10.2-13.8,17.5-13.8c7.2,0,14.7,6,17.4,13.9c0.7,2.3,1.1,15,1.1,38.5c0.1,43,0.3,44,11.5,49.2c8.9,4.2,18.5,2.7,25.1-4
		c6-6,6.4-8.9,6.4-48.8c0-32.8,0.1-34.3,2.1-38.6c6.2-12.6,23.4-13.4,31.1-1.3l2.9,4.6L963.8,66l-0.3,42.5l-3.9,8
		c-9.4,19.3-27,28.6-54,28.4C897.2,144.9,891.2,144.2,886.1,142.9z"/>
	<path class="st0" d="M1104.1,143c-19.5-5.1-32-17.1-37.2-35.5c-1.1-3.9-1.4-13.5-1.4-44c0-38.6,0-39,2.3-43.2
		c3.8-7.2,12-11.3,19.7-9.9c4.3,0.8,11.3,6.8,13.2,11.3c1,2.5,1.3,11.1,1.3,37.8c0,22.9,0.4,36.2,1.2,39.2
		c1.4,5.9,7.8,12.7,13.3,14.2c10,2.7,20.2-0.5,25.2-8l2.8-4.2l0.5-38.6c0.4-34,0.7-39,2.2-41.7c2.4-4.3,7.1-8.1,11.9-9.6
		c8.3-2.4,18.3,2.9,20.8,11.1c0.7,2.6,1.1,16.2,1.1,41.7c0,49.7-0.9,54.3-13.5,66.3c-11.2,10.8-23.9,15.1-43.9,15
		C1115,144.9,1109.4,144.3,1104.1,143z"/>
	<path class="st0" d="M988,141.8c-3-1.6-5.5-4.1-7.5-7.3l-3-4.8V76.6c0-51.7,0.1-53.2,2-56.6c1.2-1.9,4-4.8,6.4-6.5
		c3.7-2.6,5.1-3,10.9-3c8.3,0,12.8,2.3,15.8,8.2l2.1,4.2l4.4-4.5c15-15.3,38.3-7.6,36.7,12.2c-0.6,7.1-3.6,10.2-13.1,13.9
		c-17.6,6.8-25.5,12.6-27.6,20.2c-0.7,2.3-1.1,16.1-1.1,34.2c0,29-0.1,30.7-2.1,34.9C1007.6,142.6,996.5,146.3,988,141.8z"/>
</g>
<g>
	<path class="st1" d="M616,193.4c-4.7-2-7.4-4.7-9.5-9.5c-2.5-5.3-1.4-9.6,8.1-32.9c4.2-10.2,7.6-19,7.7-19.5
		c0-0.6-8.8-23.2-19.7-50.2c-14.4-36-19.7-50.4-19.8-53.6c-0.1-7.1,4.1-13.1,11.4-16.2c4.9-2,8.4-1.9,13.3,0.4
		c8,3.7,8.8,5.1,21.8,41.1c1.9,5.2,5.4,14.8,7.8,21.2l4.3,11.7l9.1-23.2c5.1-12.8,10.9-27.6,12.9-33c2.1-5.4,4.9-11.1,6.2-12.7
		c3-3.5,10-7,14.1-7c9.7,0,19.1,9.5,18.1,18.4c-0.3,2.3-5.9,17.6-12.5,34.1C682.7,79,669.1,113,659,138c-10.4,26.1-19.4,47-20.9,49
		C632,194.7,624.3,197,616,193.4z"/>
	<path class="st1" d="M243.4,143.2c-11.2-3.3-17.4-7.1-26.5-16.1c-7.1-7-9.4-10.1-12.7-17.1c-5.4-11.2-7.2-19.6-7.2-32.8
		c0.1-30,16.2-54.4,42.8-65c6.1-2.4,7.9-2.6,20.2-2.6c12.2,0,14.1,0.2,20,2.6c16.2,6.4,29.5,19.2,37.3,36.1c4.2,8.8,6,19.4,5.4,32.1
		c-0.8,20.1-7.3,35.3-20.6,47.8c-7.5,7.1-12.9,10.5-22.3,13.9C271.1,145.2,252.3,145.8,243.4,143.2z M270.8,108.4
		c9.4-4.7,14.2-14,14.9-28.9c0.4-8.5,0.2-11-1.7-16.4C279.5,49.8,271.4,43,260.1,43c-7.1,0-14.9,3.5-18.5,8.3
		c-10.4,13.6-10.4,37.8-0.1,51.3C247.7,110.7,261,113.3,270.8,108.4z"/>
	<path class="st1" d="M504.4,142.5c-30.3-9.1-48.4-36.9-46.1-70.5c1.3-17.7,7.9-32.2,20.2-44.5C491.3,14.6,504.3,9,521.5,9
		c25.2,0,48.6,16.6,59,42c3.2,8,5.1,19.8,4.1,26.5c-1,6.1-5.5,10.9-11.3,11.8c-2.1,0.4-20.3,0.7-40.5,0.7c-25.3,0-36.8,0.3-36.8,1.1
		c0,0.5,1.2,3.5,2.7,6.5c4.2,8.7,11.6,13,25.4,14.9c6.6,1,15.4-1.6,28.1-8c7.1-3.6,12-5.5,14.3-5.5c12.4,0,19.6,15.1,11.9,24.7
		c-4.5,5.6-11.9,10.9-20,14.3c-12.1,5-18,6.2-32.4,6.6C513.9,145,511.7,144.8,504.4,142.5z M548,63.5c0-2.3-4.8-12.4-7.3-15.1
		c-8.6-9.9-25.4-11.1-35.8-2.5c-3.6,3-8.2,10.5-9.3,15.4L495,64h26.5C536.1,64,548,63.8,548,63.5z"/>
	<path class="st1" d="M11.5,142.9c-3.8-1.1-8.9-6.4-10.4-10.8c-1.6-4.8-1.6-105.4,0-110.2c2.9-8.5,12-13.3,20.8-11
		c4.7,1.2,10.6,6,11.7,9.3c0.5,1.7,0.9,1.6,4.2-1.3c2-1.8,6.6-4.6,10.2-6.3c6.1-2.9,7.2-3.1,18-3.1s11.9,0.2,18.2,3.2
		c3.7,1.7,9.2,5.5,12.2,8.2c4.6,4.5,5.5,4.9,6.6,3.6c2.9-3.5,16.5-11.6,22.6-13.5c7.3-2.2,17-2.6,25.5-1c12.7,2.4,25.6,12.1,31,23.3
		c4.5,9.6,5,15.7,4.7,58.2c-0.3,43.8-0.1,42.4-8.1,48.9c-3.4,2.7-4.6,3.1-10.2,3.1c-5.5,0-6.8-0.4-10.2-3.1c-2.1-1.6-4.8-5-6-7.4
		c-2.3-4.3-2.3-5.1-2.3-39.7c0-38.5-0.4-41.8-5.8-47.6c-8.4-9-24.1-7-30.1,3.8c-1.4,2.6-1.7,8.2-2.1,41c-0.5,37.5-0.5,38.1-2.9,42.8
		c-2.9,5.9-8.1,9.6-14.7,10.3c-6.7,0.8-12.8-2.5-16.9-9.1l-3-4.8L74,91.6c-0.6-39.2-0.8-41.4-4.8-46c-2.7-3-9.3-5.6-14.2-5.6
		c-8,0-14.3,4.2-17.6,11.5c-0.5,1.1-1.1,19.4-1.4,40.7l-0.5,38.6l-3,4.4C27.5,142.4,19.6,145.3,11.5,142.9z"/>
	<path class="st1" d="M346.5,143.3c-3.3-0.8-8.1-5-10.7-9l-2.3-3.8L333.2,80c-0.3-53.9-0.1-56.8,4.5-62.9c3-3.9,9.3-7,14.2-7.1
		c5,0,12,3.7,14.3,7.6l1.9,3.3l5.2-4c2.9-2.1,7.2-4.6,9.7-5.5c6-2.1,23-3,30.2-1.5c18.6,3.9,33.1,19.2,35.8,37.7
		c1.3,9.6,1.3,76.3-0.1,81.8c-3.4,13.6-19.1,18.9-29.1,9.8c-2.2-2-4.5-4.8-5.2-6.2c-0.7-1.7-1.3-15-1.6-40l-0.5-37.6l-2.5-4.9
		c-2.1-4.1-3.6-5.5-8-7.8c-8.9-4.5-21.1-2.9-26.5,3.4c-5,6-5.5,10.3-5.5,47.9c0,33.9,0,34.7-2.2,39c-3.3,6.3-8.3,10-14.4,10.5
		C350.7,143.7,347.6,143.6,346.5,143.3z"/>
</g>
</svg>
